# xmcd CD database file
#
# Track frame offsets:
#	150
#	17815
#	36195
#	52227
#	57050
#	78857
#	102548
#	121511
#	143478
#	147466
#	169161
#	183388
#	186074
#	207072
#	224027
#	228790
#	248386
#	272570
#	292878
#	311980
#
# Disc length: 4437 seconds
#
# Revision: 1
# Processed by: cddbd v1.5.2PL0 Copyright (c) Steve Scherf et al.
# Submitted via: jetAudio 5
#
DISCID=1c115314
DTITLE=Ludacris - Chicken 'N' Beer
DYEAR=2003
DGENRE=Hip Hop
TTITLE0=Southern Fried Intro
TTITLE1=Blow It Out
TTITLE2=Stand Up
TTITLE3=Rob Quarters Skit
TTITLE4=Splash Waterfalls
TTITLE5=Hard Times
TTITLE6=Diamond In The Back
TTITLE7=Screwed Up
TTITLE8=T Baggin' Skit
TTITLE9=P-Poppin'
TTITLE10=Hip Hop Quotables
TTITLE11=Black Man's Struggle Skit
TTITLE12=Holes In My Room
TTITLE13=Teamwork
TTITLE14=Interactive Skit
TTITLE15=We Got
TTITLE16=Eyebrows Down
TTITLE17=Act A Fool (Bonus Track)
TTITLE18=Southern Hospitality (Bonus Track)
TTITLE19=Break Sumthin' (Bonus Track)
EXTD=YEAR: 2003
EXTT0=
EXTT1=
EXTT2=
EXTT3=
EXTT4=
EXTT5=
EXTT6=
EXTT7=
EXTT8=
EXTT9=
EXTT10=
EXTT11=
EXTT12=
EXTT13=
EXTT14=
EXTT15=
EXTT16=
EXTT17=
EXTT18=
EXTT19=
PLAYORDER=
